<?xml version="1.0" encoding="UTF-8" standalone="no"?>
<!-- Created with Inkscape (http://www.inkscape.org/) -->

<svg width="210mm" height="30mm" viewBox="0 0 210 100" version="1.1" id="svg1" inkscape:version="1.3 (0e150ed6c4, 2023-07-21)" sodipodi:docname="file-top.svg"
   xmlns:inkscape="http://www.inkscape.org/namespaces/inkscape"
   xmlns:sodipodi="http://sodipodi.sourceforge.net/DTD/sodipodi-0.dtd"
   xmlns="http://www.w3.org/2000/svg"
   xmlns:svg="http://www.w3.org/2000/svg">
   <sodipodi:namedview id="namedview1" pagecolor="#ffffff" bordercolor="#999999" borderopacity="1" inkscape:showpageshadow="2" inkscape:pageopacity="0" inkscape:pagecheckerboard="0" inkscape:deskcolor="#d1d1d1" inkscape:document-units="mm" inkscape:zoom="0.20422804" inkscape:cx="-22.034192" inkscape:cy="-66.102577" inkscape:window-width="1920" inkscape:window-height="1137" inkscape:window-x="-8" inkscape:window-y="-8" inkscape:window-maximized="1" inkscape:current-layer="layer1" />
   <defs id="defs1" />
   <g inkscape:label="Layer 1" inkscape:groupmode="layer" id="layer1">
      <path d="M 211.03311,4.383195 C 210.09731,4.3620852 192.87456,3.9712814 173.24937,3.7346558 163.174,3.6131746 152.72199,3.5364357 144.03565,3.58066 c -8.68634,0.044224 -15.6067,0.2090972 -18.61953,0.569991 -0.34895,0.041799 -0.79059,0.238285 -1.25781,0.6630087 -0.46721,0.4247237 -0.95988,1.0777431 -1.41076,2.0334676 -0.45089,0.9557245 -0.86018,2.214059 -1.16014,3.8488607 -0.29996,1.634802 -0.49095,3.646199 -0.5054,6.108154 -0.007,1.230978 -0.23792,2.286792 -0.63613,3.192053 -0.39821,0.905262 -0.96402,1.660107 -1.64125,2.28875 -0.67722,0.628643 -1.46565,1.131083 -2.30993,1.532206 -0.84428,0.401123 -1.74441,0.700756 -2.64377,0.923458 -1.79872,0.445403 -3.59562,0.582957 -4.94285,0.609265 -1.34723,0.02631 -2.24482,-0.0584 -2.24482,-0.0584 H 0.5880778 V 456.20368 H 211.03311 Z" style="fill:#f4dd93;stroke:#000000;stroke-width:0.212196;paint-order:stroke fill markers" id="path1" />
   </g>
</svg>
