<?xml version="1.0" encoding="UTF-8" standalone="no"?>
<svg
   class="ionicon"
   viewBox="0 0 512 512"
   version="1.1"
   id="svg3"
   sodipodi:docname="speedometer-medium.svg"
   inkscape:version="1.4 (e7c3feb100, 2024-10-09)"
   xmlns:inkscape="http://www.inkscape.org/namespaces/inkscape"
   xmlns:sodipodi="http://sodipodi.sourceforge.net/DTD/sodipodi-0.dtd"
   xmlns="http://www.w3.org/2000/svg"
   xmlns:svg="http://www.w3.org/2000/svg">
  <defs
     id="defs3" />
  <sodipodi:namedview
     id="namedview3"
     pagecolor="#ffffff"
     bordercolor="#000000"
     borderopacity="0.25"
     inkscape:showpageshadow="2"
     inkscape:pageopacity="0.0"
     inkscape:pagecheckerboard="0"
     inkscape:deskcolor="#d1d1d1"
     showguides="true"
     inkscape:zoom="1.0026553"
     inkscape:cx="232.38295"
     inkscape:cy="298.20816"
     inkscape:window-width="1898"
     inkscape:window-height="1023"
     inkscape:window-x="0"
     inkscape:window-y="0"
     inkscape:window-maximized="1"
     inkscape:current-layer="svg3">
    <sodipodi:guide
       position="256.75482,376.16391"
       orientation="1,0"
       id="guide3"
       inkscape:locked="false" />
    <sodipodi:guide
       position="118.74105,223.30303"
       orientation="0,-1"
       id="guide4"
       inkscape:locked="false" />
  </sodipodi:namedview>
  <path
     d="M256 64C132.3 64 32 164.2 32 287.9a223.18 223.18 0 0056.3 148.5c1.1 1.2 2.1 2.4 3.2 3.5a25.19 25.19 0 0037.1-.1 173.13 173.13 0 01254.8 0 25.19 25.19 0 0037.1.1l3.2-3.5A223.18 223.18 0 00480 287.9C480 164.2 379.7 64 256 64z"
     fill="none"
     stroke="currentColor"
     stroke-linecap="round"
     stroke-linejoin="round"
     stroke-width="32"
     id="path2"
     style="fill:#d09010;fill-opacity:0.36592174" />
  <path
     d="m 278.03377,201.57539 7.46157,88.8866 a 31,31 0 0 1 -1.38218,9.80251 30.11,30.11 0 0 1 -57.433,-18.09564 l 31.74855,-83.35784 a 10.23,10.23 0 0 1 9.34722,-7.037 10.06,10.06 0 0 1 10.25784,9.80137 z"
     id="path1"
     inkscape:transform-center-x="1.2729807"
     inkscape:transform-center-y="-32.229258" />
  <path
     fill="none"
     stroke="currentColor"
     stroke-linecap="round"
     stroke-miterlimit="10"
     stroke-width="32"
     d="M256 128v32M416 288h-32M128 288H96M165.49 197.49l-22.63-22.63M346.51 197.49l22.63-22.63"
     id="path3" />
</svg>
