<?xml version="1.0" encoding="UTF-8" standalone="no"?>
<!-- Created with Inkscape (http://www.inkscape.org/) -->

<svg
   width="236.46391mm"
   height="66.984154mm"
   viewBox="0 0 236.46391 66.984152"
   version="1.1"
   id="svg1"
   inkscape:version="1.4 (e7c3feb100, 2024-10-09)"
   sodipodi:docname="logo_alt.svg"
   xmlns:inkscape="http://www.inkscape.org/namespaces/inkscape"
   xmlns:sodipodi="http://sodipodi.sourceforge.net/DTD/sodipodi-0.dtd"
   xmlns="http://www.w3.org/2000/svg"
   xmlns:svg="http://www.w3.org/2000/svg">
  <sodipodi:namedview
     id="namedview1"
     pagecolor="#ffffff"
     bordercolor="#000000"
     borderopacity="0.25"
     inkscape:showpageshadow="2"
     inkscape:pageopacity="0.0"
     inkscape:pagecheckerboard="0"
     inkscape:deskcolor="#d1d1d1"
     inkscape:document-units="mm"
     inkscape:zoom="0.70710678"
     inkscape:cx="541.6438"
     inkscape:cy="316.78384"
     inkscape:window-width="1898"
     inkscape:window-height="1023"
     inkscape:window-x="0"
     inkscape:window-y="0"
     inkscape:window-maximized="1"
     inkscape:current-layer="layer1" />
  <defs
     id="defs1">
    <rect
       x="102.75707"
       y="242.04999"
       width="308.89493"
       height="99.531837"
       id="rect5" />
    <rect
       x="93.166412"
       y="224.69547"
       width="111.30695"
       height="28.278887"
       id="rect4" />
  </defs>
  <g
     inkscape:label="Layer 1"
     inkscape:groupmode="layer"
     id="layer1"
     transform="translate(-1.9607078,21.513988)">
    <path
       style="font-weight:bold;font-size:48.8337px;font-family:Charm;-inkscape-font-specification:'Charm Bold';white-space:pre;fill:#36b2c7;fill-opacity:1;stroke:#1b9eb2;stroke-width:0.466682;stroke-dasharray:none;stroke-opacity:1"
       d="m 20.105786,45.236806 c -1.772918,0 -3.180831,-1.264513 -4.223724,-3.79353 L 13.418225,35.537883 C 13.079281,34.72964 12.818564,34.182122 12.636058,33.895329 12.479619,33.608536 12.218894,33.386916 11.853882,33.230477 11.48887,33.047971 10.941351,32.956722 10.211327,32.956722 l -1.0950447,6.76578 C 8.9859197,40.452526 8.6860888,41.02612 8.2167897,41.443276 v 0.03908 c 0.3910799,0.234658 0.8603871,0.351983 1.4079053,0.351983 0.3389445,0 0.664843,-0.06519 0.977712,-0.195544 0.338944,-0.156431 0.573594,-0.23465 0.703956,-0.23465 0.208582,0 0.312869,0.117325 0.312869,0.351974 0,0.260726 -0.130362,0.6127 -0.391088,1.055931 -0.782168,1.355762 -1.7207737,2.033643 -2.8158103,2.033643 -0.2346576,0 -0.5214506,-0.03908 -0.860395,-0.117325 C 7.2130022,44.650126 6.9783527,44.598007 6.84799,44.571939 6.0918899,44.337282 5.4531146,44.219957 4.931672,44.219957 c -0.573594,0 -1.0950366,0.104287 -1.5643437,0.312868 -0.4693071,0.208582 -0.7561001,0.312869 -0.860387,0.312869 -0.2085818,0 -0.3128687,-0.15643 -0.3128687,-0.469299 0,-0.625737 0.4171556,-1.303618 1.2514749,-2.033643 0.5475183,-0.547518 0.9385982,-1.068969 1.1732558,-1.564343 0.2346495,-0.521451 0.4692991,-1.460057 0.7039486,-2.815819 L 7.3564027,25.174094 c 0.078243,-0.521443 0.3519743,-1.029856 0.8212734,-1.525231 0.4693071,-0.52145 1.0168254,-0.951644 1.6425629,-1.29058 0.651805,-0.338945 1.277543,-0.508413 1.877212,-0.508413 0.260718,0 0.430186,0.03908 0.508405,0.117325 0.07824,0.05213 0.117333,0.143417 0.117333,0.273755 0,0.156438 -0.130363,0.482345 -0.391088,0.97772 -0.260725,0.495375 -0.469307,1.238437 -0.625738,2.229187 l -0.860387,5.592523 c 0.39108,0.07824 0.886455,0.117325 1.486125,0.117325 1.851137,0 3.246004,-0.508413 4.18461,-1.525238 0.964682,-1.016817 1.447019,-2.463836 1.447019,-4.341049 0,-1.694706 -0.417155,-2.946173 -1.251475,-3.754417 -0.834319,-0.808243 -2.242224,-1.212369 -4.223724,-1.212369 -1.590411,0 -3.0765356,0.273763 -4.4583731,0.821282 -1.3818296,0.547518 -2.6072368,1.329694 -3.6762057,2.346511 -0.1042869,0.104295 -0.2607173,0.260725 -0.4692991,0.469307 -0.2085818,0.208582 -0.37805,0.351974 -0.5084127,0.430194 -0.1303626,0.05213 -0.2607253,0.07824 -0.3910879,0.07824 -0.1564304,0 -0.2607173,-0.03908 -0.3128607,-0.117333 -0.052135,-0.07824 -0.078243,-0.195544 -0.078243,-0.351974 0,-0.23465 0.065189,-0.495375 0.1955439,-0.782168 0.4171557,-1.042893 1.1080745,-2.007575 2.0727484,-2.894038 0.9907496,-0.91253 2.2291867,-1.642555 3.7153112,-2.190073 1.4861245,-0.547518 3.1677927,-0.821281 5.0450047,-0.821281 2.659381,0 4.732137,0.586623 6.218262,1.759879 1.512192,1.147188 2.268292,2.776713 2.268292,4.888575 0,1.825069 -0.599662,3.441556 -1.798993,4.849462 -1.199332,1.381829 -2.854925,2.43776 -4.966786,3.167793 1.173255,0.573594 2.007575,1.44701 2.502949,2.620266 l 2.033643,4.927681 c 0.312869,0.782168 0.612708,1.303618 0.899501,1.564343 0.286793,0.23465 0.625737,0.351975 1.016817,0.351975 0.782168,0 1.433981,-0.365012 1.955432,-1.095037 0.104287,-0.156438 0.208574,-0.299839 0.312868,-0.430193 0.104287,-0.130363 0.221612,-0.195544 0.351975,-0.195544 0.338944,0 0.508413,0.312868 0.508413,0.938606 0,0.782168 -0.195544,1.52523 -0.586632,2.229187 -0.39108,0.703956 -0.925569,1.277542 -1.60345,1.720774 -0.677881,0.417155 -1.420943,0.625737 -2.229186,0.625737 z m 8.916771,0 c -1.2254,0 -2.190074,-0.443231 -2.89403,-1.329694 -0.703957,-0.91253 -1.055931,-2.216149 -1.055931,-3.910855 0,-2.111862 0.52145,-4.236762 1.564344,-6.374692 1.068968,-2.137929 2.398654,-3.897817 3.989074,-5.279655 1.616487,-1.407905 3.180831,-2.111861 4.693023,-2.111861 1.225399,0 2.177043,0.456269 2.854924,1.368799 0.677881,0.912531 1.016826,2.190081 1.016826,3.832636 0,2.007575 -0.508413,4.09337 -1.525239,6.257375 -0.990749,2.164005 -2.28133,3.962999 -3.871741,5.39698 -1.564344,1.433981 -3.154763,2.150967 -4.77125,2.150967 z m 2.111862,-3.402442 c 0.730032,0 1.394875,-0.37805 1.994537,-1.13415 0.59967,-0.782168 1.068969,-1.825069 1.407913,-3.128688 0.338937,-1.303618 0.508405,-2.724561 0.508405,-4.262829 0,-1.303619 -0.143401,-2.242225 -0.430194,-2.815819 -0.286793,-0.573594 -0.730024,-0.860387 -1.329686,-0.860387 -0.703957,0 -1.3688,0.365012 -1.994537,1.095045 -0.59967,0.703956 -1.095045,1.681668 -1.486125,2.933135 -0.365012,1.251475 -0.547518,2.64635 -0.547518,4.184618 0,2.659381 0.625738,3.989075 1.877205,3.989075 z m 11.537021,3.402442 c -0.417155,0 -0.625737,-0.130362 -0.625737,-0.391088 0,-0.130362 0.06519,-0.391088 0.195544,-0.782168 0.286793,-0.834319 0.469299,-1.5122 0.547518,-2.033642 0.208582,-0.99075 0.495375,-2.515988 0.860387,-4.575707 0.391088,-2.059718 0.677881,-3.832636 0.860387,-5.31876 0.130363,-0.912531 0.195544,-1.473087 0.195544,-1.681669 0,-0.338944 -0.104287,-0.508412 -0.312869,-0.508412 -0.547518,0 -1.251475,0.795205 -2.111862,2.385625 -0.104287,0.208582 -0.221611,0.404118 -0.351974,0.586624 -0.130363,0.156438 -0.260725,0.234657 -0.391088,0.234657 -0.260717,0 -0.39108,-0.221619 -0.39108,-0.664851 0,-0.703956 0.299831,-1.551306 0.899493,-2.542055 0.625737,-1.016818 1.381837,-1.890243 2.268292,-2.620267 0.912531,-0.730032 1.785955,-1.095044 2.620275,-1.095044 0.52145,0 0.938606,0.182506 1.251475,0.547518 0.312868,0.36502 0.469307,0.938614 0.469307,1.720782 0,1.016817 -0.104287,2.177043 -0.312869,3.480662 h 0.03908 c 0.964682,-1.720783 2.007575,-3.10262 3.128687,-4.145513 1.121104,-1.068969 2.190073,-1.603449 3.206898,-1.603449 1.329695,0 1.994538,0.91253 1.994538,2.737599 0,0.469307 -0.06519,1.121112 -0.195544,1.955432 l -0.03908,0.234649 h 0.03908 c 1.016817,-1.538268 2.033642,-2.737599 3.050468,-3.597986 1.016817,-0.886463 1.994529,-1.329694 2.933135,-1.329694 1.329694,0 1.994537,0.938606 1.994537,2.815818 0,0.782168 -0.117324,1.759888 -0.351974,2.933144 -0.443231,2.242216 -0.703949,3.545835 -0.782168,3.910855 -0.156438,0.834311 -0.338944,1.812023 -0.547526,2.933135 -0.208582,1.095045 -0.312869,1.74685 -0.312869,1.955432 0,0.521442 0.169468,0.782168 0.508413,0.782168 0.391088,0 0.7561,-0.260726 1.095045,-0.782168 0.338936,-0.521451 0.703948,-1.277551 1.095036,-2.268301 0.15643,-0.365012 0.338937,-0.547518 0.547518,-0.547518 0.130363,0 0.22162,0.09126 0.273764,0.273763 0.07824,0.182506 0.104294,0.417156 0.07824,0.703949 -0.104287,0.938606 -0.456262,1.903288 -1.055931,2.894038 -0.573594,0.964674 -1.277543,1.772917 -2.111854,2.42473 -0.83432,0.651806 -1.668631,0.977712 -2.50295,0.977712 -1.303618,0 -1.955432,-0.860387 -1.955432,-2.581169 0,-1.068969 0.312869,-3.141717 0.938607,-6.218253 0.208581,-1.016825 0.391087,-2.020613 0.547518,-3.011363 0.182506,-1.016817 0.286801,-1.838098 0.312869,-2.463836 v -0.234649 c 0,-0.469308 -0.143401,-0.703957 -0.430194,-0.703957 -0.365012,0 -0.834311,0.351974 -1.407905,1.055931 -0.547519,0.677881 -1.108075,1.577381 -1.681669,2.698494 -0.547518,1.121104 -1.003787,2.268292 -1.368799,3.441548 l -1.212362,6.374691 c -0.07824,0.391088 -0.53448,0.769138 -1.3688,1.13415 -0.834319,0.338945 -1.551305,0.508413 -2.150975,0.508413 -0.23465,0 -0.37805,-0.05213 -0.430194,-0.156438 -0.05213,-0.07824 -0.05213,-0.23465 0,-0.469299 0.02603,-0.104287 0.404102,-2.072749 1.134151,-5.905393 0.7561,-3.832636 1.173255,-6.413797 1.251475,-7.743491 v -0.312869 c 0,-0.417155 -0.130363,-0.625737 -0.391088,-0.625737 -0.443232,0 -1.003788,0.456269 -1.681669,1.3688 -0.677881,0.91253 -1.316648,2.059718 -1.916318,3.441556 -0.599662,1.381829 -1.029855,2.724561 -1.29058,4.02818 l -0.625738,3.167793 c -0.15643,0.782167 -0.664843,1.512192 -1.52523,2.190073 -0.834319,0.677881 -1.668631,1.016825 -2.50295,1.016825 z m 27.962578,0 c -0.808243,0 -1.447011,-0.404126 -1.916318,-1.212369 -0.443231,-0.808244 -0.664843,-1.890242 -0.664843,-3.246004 0,-2.164006 0.521451,-4.380163 1.564344,-6.648455 1.068969,-2.268292 2.51598,-4.145505 4.341049,-5.631629 1.825061,-1.5122 3.793522,-2.2683 5.905384,-2.2683 0.677881,0 1.342732,0.07824 1.994537,0.234649 0.677881,0.156438 1.225407,0.351982 1.642563,0.586632 -0.234657,0.573594 -0.391088,1.042893 -0.469307,1.407905 -0.07824,0.365012 -0.130363,0.599662 -0.15643,0.703957 -0.182507,0.938606 -0.45627,2.372587 -0.821282,4.301943 -0.338944,1.90328 -0.664843,3.728349 -0.977712,5.475191 -0.15643,0.782168 -0.234649,1.381837 -0.234649,1.798993 0,0.286793 0.03908,0.495375 0.117325,0.625738 0.104287,0.130362 0.247687,0.195544 0.430193,0.195544 0.443231,0 0.847349,-0.260726 1.212361,-0.782168 0.365013,-0.547519 0.756101,-1.303619 1.173256,-2.268301 0.05214,-0.15643 0.117341,-0.286793 0.195544,-0.39108 0.07824,-0.104294 0.182506,-0.156438 0.312869,-0.156438 0.234657,0 0.351982,0.182506 0.351982,0.547518 0,0.182506 -0.01305,0.325907 -0.03908,0.430194 -0.130363,0.99075 -0.469299,1.981499 -1.016818,2.972249 -0.547518,0.964682 -1.225407,1.759887 -2.03365,2.385625 -0.782168,0.625737 -1.590412,0.938606 -2.424731,0.938606 -0.677881,0 -1.212362,-0.247687 -1.603449,-0.743062 -0.365013,-0.495375 -0.547519,-1.160218 -0.547519,-1.994537 0,-0.208582 0.02611,-0.521451 0.07824,-0.938606 l 0.195544,-1.329687 h -0.07824 c -0.964682,1.460049 -2.072756,2.659381 -3.324231,3.597987 -1.225399,0.938606 -2.294368,1.407905 -3.206899,1.407905 z m 2.229187,-3.871749 c 0.573594,0 1.303618,-0.508413 2.190081,-1.525231 0.912531,-1.016825 1.759888,-2.294368 2.542056,-3.832636 0.782168,-1.564343 1.303618,-3.115649 1.564343,-4.653917 l 0.273756,-1.525238 c -0.651806,-0.39108 -1.251475,-0.586624 -1.798994,-0.586624 -0.834319,0 -1.681668,0.521443 -2.542055,1.564336 -0.834319,1.016825 -1.52523,2.346519 -2.072749,3.989074 -0.52145,1.616487 -0.782175,3.27208 -0.782175,4.966786 0,0.625738 0.03908,1.055931 0.117324,1.290581 0.104295,0.208582 0.273764,0.312869 0.508413,0.312869 z m 15.174154,3.871749 c -0.417156,0 -0.625738,-0.1434 -0.625738,-0.430193 0,-0.104295 0.06519,-0.37805 0.195544,-0.821282 0.130355,-0.338944 0.312861,-0.990749 0.547519,-1.955423 0.182506,-0.7561 0.443223,-2.1249 0.782167,-4.1064 0.338945,-1.981499 0.651814,-3.910855 0.938607,-5.788067 0.130362,-0.834319 0.195544,-1.3688 0.195544,-1.603449 0,-0.391088 -0.117325,-0.586632 -0.351975,-0.586632 -0.234657,0 -0.534488,0.208582 -0.8995,0.625737 -0.365013,0.391088 -0.756101,0.97772 -1.173256,1.759888 -0.104295,0.208582 -0.22162,0.404118 -0.351974,0.586624 -0.130363,0.156438 -0.260726,0.234657 -0.391088,0.234657 -0.260726,0 -0.391088,-0.221619 -0.391088,-0.664851 0,-0.703956 0.299831,-1.551306 0.8995,-2.542055 0.625738,-1.016818 1.381838,-1.890243 2.268293,-2.620267 0.91253,-0.730032 1.785955,-1.095044 2.620274,-1.095044 0.521443,0 0.938606,0.182506 1.251475,0.547518 0.312869,0.36502 0.469299,0.938614 0.469299,1.720782 0,1.016817 -0.104287,2.177043 -0.312868,3.480662 h 0.03908 c 2.789743,-3.832644 5.136255,-5.748962 7.039536,-5.748962 1.32969,0 1.99454,0.925568 1.99454,2.776705 0,0.808243 -0.11733,1.799001 -0.35198,2.972257 -0.62573,3.050468 -1.05593,5.214473 -1.29058,6.492016 -0.23466,1.251475 -0.35198,2.007575 -0.35198,2.268292 0,0.547518 0.15644,0.821282 0.46931,0.821282 0.73002,0 1.47308,-1.016826 2.22918,-3.050469 0.15643,-0.365012 0.32591,-0.547518 0.50842,-0.547518 0.31286,0 0.44322,0.325907 0.39108,0.977712 -0.10429,0.91253 -0.44323,1.864174 -1.01682,2.854924 -0.5736,0.99075 -1.29059,1.812031 -2.15098,2.463844 -0.83432,0.651806 -1.681666,0.977712 -2.542053,0.977712 -1.277543,0 -1.916318,-0.860387 -1.916318,-2.581169 0,-0.677881 0.07824,-1.499154 0.234649,-2.463836 0.156439,-0.964674 0.391088,-2.203111 0.703957,-3.715311 0.208582,-1.016818 0.391088,-2.033643 0.547518,-3.050469 0.182506,-1.016817 0.286801,-1.838098 0.312869,-2.463836 v -0.312869 c 0,-0.417155 -0.130363,-0.625737 -0.391088,-0.625737 -0.443231,0 -1.055931,0.469299 -1.838099,1.407905 -0.782168,0.912531 -1.52523,2.059719 -2.229187,3.441556 -0.67788,1.38183 -1.147188,2.711524 -1.407905,3.989075 l -0.625737,3.167793 c -0.156431,0.782167 -0.664843,1.512192 -1.525238,2.190073 -0.83432,0.677881 -1.668631,1.016825 -2.502942,1.016825 z m 22.604731,0 c -1.35577,0 -2.42473,-0.456269 -3.2069,-1.3688 -0.7561,-0.938606 -1.13415,-2.242224 -1.13415,-3.910855 0,-1.955431 0.49537,-4.002112 1.48612,-6.140042 1.01683,-2.164005 2.29437,-3.962998 3.83264,-5.396979 1.56434,-1.460057 3.12869,-2.190081 4.69303,-2.190081 0.86039,0 1.53827,0.247687 2.03364,0.743062 0.52144,0.495375 0.78217,1.212369 0.78217,2.150975 0,1.173256 -0.37805,2.385617 -1.13414,3.637092 -0.7561,1.2254 -1.799,2.37258 -3.12869,3.441548 -1.30362,1.042894 -2.7767,1.890251 -4.41927,2.542064 0.0782,1.798993 0.87343,2.698486 2.38563,2.698486 0.83432,0 1.61649,-0.260726 2.34651,-0.782168 0.7561,-0.521451 1.42094,-1.225407 1.99454,-2.111862 0.13036,-0.234658 0.24768,-0.404126 0.35197,-0.508413 0.1043,-0.130362 0.20858,-0.195544 0.31287,-0.195544 0.15643,0 0.26073,0.05214 0.31287,0.156431 0.0521,0.104295 0.0782,0.286801 0.0782,0.547526 0,0.834311 -0.37805,1.785955 -1.13415,2.854924 -0.73002,1.068969 -1.68167,1.981499 -2.85492,2.7376 -1.17326,0.730024 -2.37258,1.095036 -3.59799,1.095036 z m 0.78217,-9.698923 c 0.5736,0 1.16022,-0.195544 1.75988,-0.586623 0.59967,-0.417156 1.09505,-0.951645 1.48613,-1.603458 0.39108,-0.651805 0.58663,-1.355762 0.58663,-2.111854 0,-0.938606 -0.37805,-1.407913 -1.13415,-1.407913 -0.80825,0 -1.53827,0.508413 -2.19008,1.525238 -0.65181,1.016817 -1.06896,2.372579 -1.25147,4.067286 0.15643,0.07824 0.40412,0.117324 0.74306,0.117324 z m 13.8053,9.698923 c -0.86039,0 -1.49916,-0.273763 -1.91632,-0.821281 -0.41715,-0.547519 -0.62573,-1.420943 -0.62573,-2.620275 0,-0.756092 0.10428,-1.75988 0.31286,-3.011354 l 1.60345,-9.151405 h -3.16779 c -0.28679,0 -0.49537,-0.02611 -0.62574,-0.07824 -0.10428,-0.07824 -0.15643,-0.182514 -0.15643,-0.312869 0,-0.234657 0.16947,-0.560564 0.50842,-0.97772 0.33894,-0.417155 0.71699,-0.795205 1.13415,-1.134142 0.44323,-0.338944 0.80824,-0.508413 1.09503,-0.508413 h 1.799 l 0.31286,-2.033642 c 0.18251,-0.964682 0.71699,-1.825069 1.60345,-2.581169 0.91253,-0.756101 1.799,-1.134151 2.65938,-1.134151 0.20859,0 0.37805,0.03908 0.50842,0.117333 0.13036,0.07824 0.19554,0.195544 0.19554,0.351974 0,0.104287 -0.13036,0.39108 -0.39109,0.860388 -0.26072,0.443231 -0.45627,1.068968 -0.58662,1.877212 l -0.4302,2.542055 h 3.32423 c 0.31287,0 0.52144,0.02611 0.62574,0.07824 0.10428,0.02603 0.15643,0.104271 0.15643,0.234649 0,0.260725 -0.18251,0.6127 -0.54752,1.055931 -0.36501,0.417156 -0.78217,0.795206 -1.25148,1.13415 -0.4693,0.338937 -0.82127,0.508405 -1.05593,0.508405 h -1.75988 l -1.56434,9.307835 c -0.18251,0.91253 -0.27376,1.616487 -0.27376,2.111862 0,0.36502 0.0521,0.625745 0.15643,0.782176 0.13037,0.130362 0.31287,0.195544 0.54752,0.195544 0.86039,0 1.66863,-0.703957 2.42473,-2.111862 0.0782,-0.182506 0.15643,-0.312869 0.23465,-0.391088 0.0782,-0.104295 0.16947,-0.156439 0.27377,-0.156439 0.26071,0 0.39108,0.22162 0.39108,0.664851 0,0.677881 -0.26073,1.433973 -0.78217,2.268293 -0.52145,0.808243 -1.21236,1.499162 -2.07276,2.072756 -0.83431,0.573594 -1.72077,0.860387 -2.65938,0.860387 z m 11.41968,0 c -1.2254,0 -2.19007,-0.443231 -2.89403,-1.329694 -0.70396,-0.91253 -1.05593,-2.216149 -1.05593,-3.910855 0,-2.111862 0.52145,-4.236762 1.56434,-6.374692 1.06897,-2.137929 2.39866,-3.897817 3.98907,-5.279655 1.61649,-1.407905 3.18083,-2.111861 4.69303,-2.111861 1.2254,0 2.17704,0.456269 2.85493,1.368799 0.67788,0.912531 1.01681,2.190081 1.01681,3.832636 0,2.007575 -0.50841,4.09337 -1.52523,6.257375 -0.99075,2.164005 -2.28133,3.962999 -3.87175,5.39698 -1.56434,1.433981 -3.15475,2.150967 -4.77124,2.150967 z m 2.11186,-3.402442 c 0.73004,0 1.39488,-0.37805 1.99454,-1.13415 0.59967,-0.782168 1.06897,-1.825069 1.40791,-3.128688 0.33894,-1.303618 0.50841,-2.724561 0.50841,-4.262829 0,-1.303619 -0.1434,-2.242225 -0.43019,-2.815819 -0.2868,-0.573594 -0.73003,-0.860387 -1.32969,-0.860387 -0.70396,0 -1.3688,0.365012 -1.99454,1.095045 -0.59967,0.703956 -1.09504,1.681668 -1.48612,2.933135 -0.36502,1.251475 -0.54753,2.64635 -0.54753,4.184618 0,2.659381 0.62574,3.989075 1.87721,3.989075 z m 13.29688,3.402442 c -1.22541,0 -2.19008,-0.443231 -2.89404,-1.329694 -0.70395,-0.91253 -1.05593,-2.216149 -1.05593,-3.910855 0,-2.111862 0.52145,-4.236762 1.56435,-6.374692 1.06896,-2.137929 2.39865,-3.897817 3.98907,-5.279655 1.61649,-1.407905 3.18083,-2.111861 4.69302,-2.111861 1.2254,0 2.17705,0.456269 2.85493,1.368799 0.67788,0.912531 1.01682,2.190081 1.01682,3.832636 0,2.007575 -0.50841,4.09337 -1.52524,6.257375 -0.99075,2.164005 -2.28133,3.962999 -3.87174,5.39698 -1.56434,1.433981 -3.15476,2.150967 -4.77124,2.150967 z m 2.11185,-3.402442 c 0.73004,0 1.39488,-0.37805 1.99454,-1.13415 0.59967,-0.782168 1.06897,-1.825069 1.40792,-3.128688 0.33893,-1.303618 0.5084,-2.724561 0.5084,-4.262829 0,-1.303619 -0.1434,-2.242225 -0.43019,-2.815819 -0.2868,-0.573594 -0.73003,-0.860387 -1.32969,-0.860387 -0.70396,0 -1.3688,0.365012 -1.99454,1.095045 -0.59967,0.703956 -1.09504,1.681668 -1.48612,2.933135 -0.36501,1.251475 -0.54752,2.64635 -0.54752,4.184618 0,2.659381 0.62574,3.989075 1.8772,3.989075 z m 12.12363,3.402442 c -1.40791,0 -2.11187,-1.029855 -2.11187,-3.089574 0,-0.625737 0.0521,-1.251475 0.15644,-1.877212 l 2.34651,-14.35284 c 0.54752,-3.519767 1.21237,-6.335586 1.99454,-8.447448 0.80824,-2.111862 1.87721,-3.689236 3.2069,-4.732129 0.78217,-0.599669 1.55131,-1.003787 2.30741,-1.212369 0.78216,-0.208582 1.79899,-0.404118 3.05046,-0.586624 0.80825,-0.130363 1.32969,-0.22162 1.56435,-0.273763 0.26071,-0.07824 0.43019,-0.117325 0.50841,-0.117325 0.26072,0 0.39108,0.143401 0.39108,0.430194 0,0.234649 -0.10429,0.521442 -0.31287,0.860387 -0.1825,0.312868 -0.41715,0.612707 -0.70395,0.8995 -0.28679,0.260718 -0.57359,0.430186 -0.86039,0.508405 -0.26072,0.05213 -0.59966,0.07824 -1.01682,0.07824 -1.14718,0 -2.09882,0.391088 -2.85492,1.173256 -0.65181,0.651805 -1.21237,1.629525 -1.68167,2.933143 -0.44323,1.277543 -0.84735,3.076536 -1.21237,5.39698 l -2.73759,17.24687 c -0.026,0.182506 -0.0391,0.404126 -0.0391,0.664843 0,0.312869 0.0391,0.534489 0.11732,0.664851 0.0782,0.104287 0.41687,0.0141 0.35198,0.156431 -0.53666,1.177444 -0.257,1.314558 0.0391,2.620274 -0.86038,0.703957 -1.6947,1.055931 -2.50295,1.055931 z"
       id="text5"
       aria-label="Romanetool"
       sodipodi:nodetypes="cccccccccscsscsscssssccccccscssccscsssscscscscccscscccccscsssscccscsccsssccsscssssccssssccccssccssccssscccssccccsscccssscscccssscccsscccccsccccsssscccssscsccsccscccscsccssscccscsccccsssccccsccscscsccscsscccssccsssccssccsscscscssscccsscccccccscsccscscccscccsssccssscsssscssssccscsscscccssscccscscssccscsccssccssscsccsssccsscssssccssscsccsssccsscssssccsssscccccccsscccsccccscscss" />
    <g
       id="g7"
       transform="matrix(5.0276262,2.4237101,-2.4237101,5.0276262,244.4313,-472.35403)"
       style="fill:#008000">
      <g
         id="g16"
         transform="matrix(0.61003471,0,0,0.61003471,5.2084695,15.541707)">
        <path
           id="path2"
           style="fill:#daedff;fill-opacity:0.7189;stroke:#000000;stroke-width:0.511806;stroke-linecap:round;stroke-dasharray:none;stroke-opacity:1"
           d="m 34.240354,93.491002 0.448589,-2.058378 c 8.439859,-6.334696 9.607705,-12.23735 7.609633,-19.217743 -8.563308,4.573675 -9.620869,10.660249 -7.632872,19.160353"
           sodipodi:nodetypes="cccc" />
        <path
           id="path4"
           style="fill:none;stroke:#000000;stroke-width:0.280996;stroke-dasharray:none;stroke-opacity:1"
           d="m 43.155579,76.524662 c -0.5819,1.104075 -2.530363,2.641027 -4.210507,3.727885 m 0.0082,2.57e-4 c -0.554005,-0.42664 -1.608959,-4.756814 -1.15678,-4.9748"
           sodipodi:nodetypes="cccc" />
        <path
           id="path6"
           style="fill:none;stroke:#000000;stroke-width:0.280996;stroke-dasharray:none;stroke-opacity:1"
           d="m 38.183034,83.727135 c 1.7135,-1.00551 3.341261,-1.789754 4.890401,-3.951914 M 37.0136,83.076291 C 35.433492,80.02581 35.842029,77.817076 35.842029,77.817076"
           sodipodi:nodetypes="cccc" />
        <path
           id="path8"
           style="fill:none;stroke:#000000;stroke-width:0.280996;stroke-dasharray:none;stroke-opacity:1"
           d="M 36.837799,87.550552 C 38.394,86.535843 40.003973,85.832683 41.47679,84.334849 M 35.421937,86.4442 c -0.213643,-0.31928 -1.492239,-3.550262 -1.320086,-4.130102"
           sodipodi:nodetypes="cccc" />
        <path
           style="fill:none;fill-opacity:0.7189;stroke:#1cddd3;stroke-width:0.905546;stroke-linecap:round;stroke-linejoin:round;stroke-dasharray:none;stroke-opacity:1"
           d="M 34.714832,91.324377 C 34.153438,80.363373 45.301755,78.582314 41.580211,69.795345"
           id="path13" />
        <path
           style="fill:none;fill-opacity:0.7189;stroke:#f6a321;stroke-width:0.905546;stroke-linecap:round;stroke-linejoin:round;stroke-dasharray:none;stroke-opacity:1"
           d="m 44.153514,72.953825 c 0.02184,-0.126605 0.749441,-2.715828 0.749441,-2.715828 l -2.626655,-0.0073"
           id="path15"
           sodipodi:nodetypes="ccc" />
        <path
           style="fill:none;fill-opacity:0.7189;stroke:#f6a321;stroke-width:0.905546;stroke-linecap:round;stroke-linejoin:round;stroke-dasharray:none;stroke-opacity:1"
           d="M 34.715007,91.332269 C 41.093728,81.730176 36.92195,75.244699 44.783709,70.319747"
           id="path16"
           sodipodi:nodetypes="cc" />
        <path
           style="fill:none;fill-opacity:0.7189;stroke:#1cddd3;stroke-width:0.905546;stroke-linecap:round;stroke-linejoin:round;stroke-dasharray:none;stroke-opacity:1"
           d="m 40.378432,72.405482 c 0.09419,-0.35491 1.039097,-2.770297 1.039097,-2.770297 l 2.891797,1.141279"
           id="path14"
           sodipodi:nodetypes="ccc" />
      </g>
    </g>
    <g
       id="g1"
       transform="matrix(1.0402829,0,0,1.0402829,10.7402,-39.581997)">
      <path
         id="path2-6"
         style="fill:#e0faff;fill-opacity:1;stroke:#094643;stroke-width:4.7971;stroke-linecap:round;stroke-linejoin:round;stroke-dasharray:none;stroke-opacity:1"
         d="m 153.7723,79.194153 3.92476,-5.017661 c 37.45452,-3.286847 58.92741,-28.628525 54.45681,-53.513167 -40.10363,1.218878 -53.54643,29.300349 -54.44475,53.326331"
         sodipodi:nodetypes="cccc" />
      <path
         style="fill:none;fill-opacity:0.7189;stroke:#1cddd3;stroke-width:8.21346;stroke-linecap:round;stroke-linejoin:round;stroke-dasharray:none;stroke-opacity:1"
         d="m 159.20022,72.50237 c 15.4204,-31.880084 43.58306,-7.25906 40.93698,-49.037977"
         id="path13-9"
         sodipodi:nodetypes="cc" />
      <path
         style="fill:none;fill-opacity:1;stroke:#f6a321;stroke-width:8.21346;stroke-linecap:round;stroke-linejoin:round;stroke-dasharray:none;stroke-opacity:1"
         d="m 159.72695,72.613293 c 34.32848,-15.780209 6.64936,-40.048031 52.56117,-39.191894"
         id="path16-3"
         sodipodi:nodetypes="cc" />
    </g>
  </g>
</svg>
